<svg xmlns="http://www.w3.org/2000/svg" xmlns:xlink="http://www.w3.org/1999/xlink" id="Group_1121" x="0px" y="0px" viewBox="0 0 210.3 62.9" style="enable-background:new 0 0 210.3 62.9;" xml:space="preserve"><style type="text/css">	.st0{fill:#FFFFFF;}</style><path class="st0" d="M34.7,47.1c-0.3,0.1-0.7,0.2-1,0.3c-0.1,0-0.1,0-0.2,0c-0.4,0-0.7-0.3-0.7-0.8v-5.9c0-0.6,0.3-1.2,0.9-1.4 c0.3-0.2,0.6-0.4,0.9-0.6c0.6-0.5,1.2-1.1,1.6-1.7c2.4-3.4,1.5-8.1-1.9-10.4c-3.4-2.4-8.1-1.5-10.4,1.9c-0.1,0.2-0.3,0.4-0.4,0.6 c-0.3,0.5-0.9,0.9-1.5,0.9h-5.6c-0.6,0-0.9-0.3-0.8-1c0-0.2,0.1-0.4,0.2-0.6v0c1.4-4.7,5-8.3,9.6-9.9c7.9-2.6,16.4,1.7,19,9.5 C46.8,36.1,42.6,44.5,34.7,47.1z"></path><path class="st0" d="M160.8,22.9L160.8,22.9c-0.7-0.8-1.5-1.4-2.4-1.8c-2.5-1-5.3-0.9-7.6,0.4c-1.3,0.7-2.3,1.8-3,3.1 c-0.5-1.3-1.5-2.5-2.7-3.2c-1.2-0.7-2.5-1-3.8-1c-1.5,0-2.9,0.4-4.1,1.2c-1.1,0.7-2,1.7-2.5,2.8h-0.1c0-0.4,0-1,0-1.7 s-0.1-1.2-0.2-1.8h-3.9c0.1,0.7,0.1,1.4,0.2,2.3s0,1.6,0,2.2l0,16.5h4.1V30.7c-0.1-1.8,0.5-3.6,1.6-5c0.9-1.2,2.3-1.9,3.8-1.9 c0.7,0,1.4,0.1,2.1,0.4c0.5,0.3,1,0.7,1.4,1.1c0.4,0.5,0.6,1.1,0.8,1.7c0.2,0.7,0.2,1.5,0.3,2.2v12.5h4.1V30.6 c0-0.8,0.1-1.6,0.3-2.4c0.2-0.8,0.5-1.5,0.9-2.1c0.4-0.6,1-1.2,1.7-1.5c0.7-0.4,1.6-0.6,2.4-0.6c0.8,0,1.6,0.2,2.3,0.5 c0.6,0.3,1.1,0.8,1.4,1.4c0.4,0.6,0.6,1.3,0.8,2c0.2,0.8,0.2,1.6,0.2,2.4v11.7h4.1v-13c0-1.1-0.1-2.3-0.5-3.4 C162,24.6,161.5,23.7,160.8,22.9z"></path><path class="st0" d="M184,37.7L184,37.7l0-9.1c0-1.1-0.2-2.2-0.5-3.2c-0.3-1-0.9-1.9-1.6-2.6c-0.8-0.8-1.7-1.4-2.7-1.7 c-1.3-0.5-2.6-0.7-3.9-0.6c-1.6,0-3.3,0.3-4.8,0.8c-1.4,0.5-2.7,1.3-3.8,2.3l2.2,2.7c0.8-0.7,1.7-1.3,2.6-1.8 c1.1-0.5,2.2-0.7,3.3-0.7c1.3-0.1,2.7,0.3,3.8,1.1c1,0.9,1.5,2.2,1.4,3.5v0.6c-1.8,0-3.5,0.1-5.3,0.2c-1.6,0.1-3.2,0.4-4.7,1 c-1.3,0.4-2.4,1.1-3.4,2.1c-0.9,1-1.4,2.4-1.3,3.8c0,1.1,0.2,2.1,0.7,3c0.5,0.8,1.1,1.5,1.8,2c0.7,0.5,1.6,0.9,2.5,1.1 c0.8,0.2,1.7,0.3,2.6,0.3c1.4,0,2.9-0.3,4.1-0.9c1.2-0.6,2.2-1.5,2.9-2.6h0.1c0,1,0.1,2,0.4,3h3.7c-0.1-0.6-0.2-1.3-0.3-2 C184,39.2,184,38.4,184,37.7z M178.4,37.4c-1.2,1.2-2.8,1.9-4.5,1.7c-0.5,0-1-0.1-1.5-0.2c-0.5-0.1-1-0.3-1.4-0.6 c-0.4-0.3-0.7-0.6-1-1c-0.3-0.5-0.4-1-0.4-1.5c0-0.8,0.3-1.6,0.9-2.1c0.6-0.6,1.4-1,2.2-1.2c1-0.3,2-0.5,3-0.5 c1.1-0.1,2.2-0.1,3.2-0.1h1l0,1.1C180.1,34.6,179.5,36.2,178.4,37.4z"></path><path class="st0" d="M86.4,20.2L86.4,20.2c-10.5,0-12.7,7-12.7,12.4c0,9.1,0,19.5,0,19.5h7V39.8h0.1c0.7,1,1.6,1.7,2.7,2.2 c1.2,0.5,2.4,0.8,3.7,0.8c1.5,0,2.9-0.3,4.3-0.9c1.2-0.6,2.3-1.5,3.2-2.5c0.9-1.1,1.6-2.3,2-3.6c0.5-1.4,0.7-2.8,0.7-4.3 C97.4,24.2,93.4,20.2,86.4,20.2z M90.3,33.5c-0.2,0.6-0.5,1.2-0.9,1.8c-0.4,0.5-1,0.9-1.6,1.2c-0.7,0.3-1.4,0.5-2.2,0.5 c-0.7,0-1.5-0.1-2.1-0.5c-0.6-0.3-1.2-0.7-1.6-1.2c-0.4-0.5-0.8-1.1-1-1.8c-0.5-1.3-0.5-2.7,0-4c0.2-0.6,0.6-1.2,1-1.8 c0.4-0.5,1-0.9,1.6-1.2c0.7-0.3,1.4-0.5,2.1-0.5c1.4,0,2.8,0.6,3.7,1.7c0.4,0.5,0.7,1.1,0.9,1.7c0.2,0.6,0.3,1.3,0.3,2 C90.6,32.1,90.5,32.8,90.3,33.5z"></path><rect x="187.6" y="21" class="st0" width="4.1" height="21"></rect><path class="st0" d="M209.8,33.3L209.8,33.3c-0.4-0.7-0.9-1.3-1.5-1.7c-0.7-0.5-1.4-0.9-2.2-1.2c-0.9-0.3-1.8-0.6-2.8-0.8 c-1.2-0.2-2.4-0.6-3.6-1.2c-0.8-0.4-1.2-1.1-1.2-2c0-0.4,0.1-0.9,0.3-1.3c0.2-0.3,0.5-0.6,0.9-0.8c0.4-0.2,0.8-0.4,1.3-0.5 c0.5-0.1,0.9-0.2,1.4-0.2c1,0,2,0.2,2.9,0.7c0.8,0.4,1.5,1.1,2,1.9l2.9-2.4c-0.8-1.2-1.9-2-3.2-2.6c-1.4-0.6-2.9-0.9-4.4-0.9 c-1,0-2,0.1-2.9,0.4c-0.9,0.2-1.8,0.6-2.5,1.2c-0.7,0.5-1.4,1.2-1.8,2c-0.5,0.9-0.7,1.9-0.7,2.9c0,0.9,0.2,1.7,0.6,2.5 c0.4,0.6,0.8,1.2,1.4,1.7c0.6,0.4,1.3,0.8,2,1c0.7,0.3,1.4,0.5,2.1,0.6c1.4,0.3,2.8,0.7,4.1,1.3c0.9,0.4,1.4,1.2,1.4,2.2 c0.1,1-0.4,1.9-1.3,2.4c-0.4,0.2-0.9,0.4-1.3,0.5c-0.5,0.1-1,0.2-1.5,0.2c-1.1,0-2.3-0.3-3.2-0.8c-0.9-0.5-1.7-1.2-2.3-2.1l-3,2.5 c1,1.3,2.3,2.2,3.8,2.8c1.5,0.6,3.1,0.9,4.7,0.9c1,0,2.1-0.1,3.1-0.4c1-0.2,1.9-0.6,2.7-1.2c0.8-0.5,1.4-1.3,1.9-2.1 c0.5-1,0.7-2,0.7-3.1C210.3,34.9,210.2,34.1,209.8,33.3z"></path><path class="st0" d="M189.7,13.2L189.7,13.2c-0.7,0-1.4,0.3-1.9,0.8c-0.5,0.5-0.8,1.2-0.8,1.9c0,0.7,0.3,1.4,0.8,1.9 c0.5,0.5,1.2,0.8,1.9,0.8c0.7,0,1.4-0.3,2-0.8c0.5-0.5,0.8-1.2,0.8-1.9c0-0.7-0.3-1.4-0.8-1.9C191.1,13.4,190.4,13.1,189.7,13.2z"></path><path class="st0" d="M116.1,23.8c-0.7-1.2-1.8-2.1-3.1-2.7c-1.2-0.6-2.5-0.8-3.8-0.8c-2.9-0.1-5.6,1.2-7.5,3.4c-0.9,1-1.6,2.3-2,3.5 C99.3,28.6,99,30,99,31.4c0,1.4,0.2,2.9,0.7,4.2c0.4,1.3,1.1,2.5,2,3.5c0.9,1,2,1.8,3.2,2.4c1.4,0.6,2.8,0.9,4.3,0.9 c1.3,0,2.6-0.2,3.8-0.8c1-0.5,1.9-1.2,2.7-2h0.1v1.3c0.1,1.6-0.4,3.1-1.5,4.3c-1.2,1.2-2.9,1.8-4.6,1.6c-1.2,0-2.5-0.2-3.7-0.7 c-1.3-0.5-2.4-1.1-3.4-2l-3.5,5c1.6,1.1,3.3,2,5.2,2.5c1.9,0.6,3.8,0.8,5.8,0.9c1.7,0,3.5-0.2,5.2-0.7c1.5-0.5,2.8-1.2,4-2.3 c1.1-1.1,2-2.4,2.5-3.8c0.6-1.8,0.9-3.6,0.9-5.5V21h-6.6V23.8z M115.7,33.5L115.7,33.5c-0.2,0.6-0.6,1.2-1,1.7 c-1,1.1-2.3,1.6-3.8,1.6c-1.4,0-2.8-0.6-3.7-1.6c-0.4-0.5-0.8-1.1-1-1.7c-0.2-0.7-0.3-1.4-0.3-2c0-0.7,0.1-1.4,0.3-2.1 c0.2-0.6,0.5-1.2,1-1.7c0.4-0.5,1-0.9,1.6-1.2c0.7-0.3,1.4-0.4,2.1-0.4c0.7,0,1.5,0.1,2.1,0.4c0.6,0.3,1.2,0.7,1.6,1.2 c0.5,0.5,0.8,1.1,1,1.7c0.2,0.7,0.4,1.4,0.4,2.1C116,32.1,115.9,32.8,115.7,33.5z"></path><path class="st0" d="M25.3,18.7c-4.6,1.5-8.2,5.2-9.6,9.9v0c-0.1,0.2-0.1,0.4-0.2,0.6c-0.1,0.7,0.2,1,0.8,1h5.6 c0.6,0,1.2-0.3,1.5-0.9c0.1-0.2,0.2-0.4,0.4-0.6c2.4-3.4,7-4.3,10.4-1.9c3.4,2.4,4.3,7,1.9,10.4c-0.4,0.7-1,1.2-1.6,1.7 c-0.3,0.2-0.6,0.4-0.9,0.6c-0.5,0.2-0.9,0.8-0.9,1.4v5.9c0,0.4,0.3,0.7,0.7,0.8c0.1,0,0.1,0,0.2,0c0.3-0.1,0.7-0.2,1-0.3 c7.9-2.6,12.1-11.1,9.5-19C41.6,20.3,33.1,16.1,25.3,18.7z"></path><path class="st0" d="M30,2.9c-16.6,0-30,13.4-30,30c0,2.2,0.3,4.4,0.7,6.5c0.1,0.6,0.7,1.1,1.3,1h19.9c0.3,0,0.6,0.3,0.6,0.6v19.9 c0,0.8,0.3,1.2,1.3,1.4c2,0.4,4.1,0.6,6.2,0.6c16.6,0,30-13.4,30-30S46.6,2.9,30,2.9z M52.5,33.8C52,45.4,42.9,54.7,31.3,55.4 c-0.6,0.1-1.2-0.3-1.3-0.9c0-0.1,0-0.2,0-0.3V35c0-1.2-1-2.1-2.1-2.1H8.4c-0.5,0-0.8-0.4-0.8-0.8c0,0,0,0,0-0.1l0,0 C8,19.6,18.5,9.9,30.9,10.4S53,21.4,52.5,33.8z"></path><path class="st0" d="M19.3,43.2C19.3,43.2,19.3,43.2,19.3,43.2l-17,0c-0.9,0-1.2,0.5-0.9,1.2c0.2,0.4,0.3,0.8,0.5,1.1 c3.4,6.8,9.3,12.2,16.4,15c0.8,0.3,1.3,0,1.3-0.8V43.5C19.6,43.3,19.5,43.2,19.3,43.2z"></path></svg>